<?xml version="1.0" encoding="UTF-8" standalone="no"?>
<!-- Created with Inkscape (http://www.inkscape.org/) -->

<svg
   xmlns:dc="http://purl.org/dc/elements/1.1/"
   xmlns:cc="http://creativecommons.org/ns#"
   xmlns:rdf="http://www.w3.org/1999/02/22-rdf-syntax-ns#"
   xmlns:svg="http://www.w3.org/2000/svg"
   xmlns="http://www.w3.org/2000/svg"
   xmlns:sodipodi="http://sodipodi.sourceforge.net/DTD/sodipodi-0.dtd"
   xmlns:inkscape="http://www.inkscape.org/namespaces/inkscape"
   width="744.09448819"
   height="1052.3622047"
   id="svg2"
   version="1.1"
   inkscape:version="0.48.5 r10040"
   sodipodi:docname="laser_cut_board.svg"
   inkscape:export-filename="/home/derek/code/Color-O-Tron/laser_cut_board.png"
   inkscape:export-xdpi="225.39999"
   inkscape:export-ydpi="225.39999">
  <defs
     id="defs4" />
  <sodipodi:namedview
     id="base"
     pagecolor="#ffffff"
     bordercolor="#666666"
     borderopacity="1.0"
     inkscape:pageopacity="0.0"
     inkscape:pageshadow="2"
     inkscape:zoom="3.959798"
     inkscape:cx="143.44647"
     inkscape:cy="703.22256"
     inkscape:document-units="px"
     inkscape:current-layer="layer1"
     showgrid="false"
     inkscape:window-width="1366"
     inkscape:window-height="719"
     inkscape:window-x="0"
     inkscape:window-y="30"
     inkscape:window-maximized="1" />
  <metadata
     id="metadata7">
    <rdf:RDF>
      <cc:Work
         rdf:about="">
        <dc:format>image/svg+xml</dc:format>
        <dc:type
           rdf:resource="http://purl.org/dc/dcmitype/StillImage" />
        <dc:title></dc:title>
      </cc:Work>
    </rdf:RDF>
  </metadata>
  <g
     inkscape:label="Layer 1"
     inkscape:groupmode="layer"
     id="layer1">
    <rect
       style="fill:none;fill-opacity:1;stroke:#000000;stroke-width:1;stroke-miterlimit:4;stroke-opacity:1;stroke-dasharray:none"
       id="rect2985"
       width="158.72021"
       height="158.72021"
       x="82.354179"
       y="284.14496" />
    <g
       id="g4091"
       transform="matrix(-1,0,0,-1,376.60168,713.42977)">
      <path
         transform="matrix(0.49315068,0,0,0.49315068,147.36283,314.09408)"
         d="M 63,49.5 C 63,51.985281 60.985281,54 58.5,54 56.014719,54 54,51.985281 54,49.5 54,47.014719 56.014719,45 58.5,45 c 2.485281,0 4.5,2.014719 4.5,4.5 z"
         sodipodi:ry="4.5"
         sodipodi:rx="4.5"
         sodipodi:cy="49.5"
         sodipodi:cx="58.5"
         id="path2995"
         style="fill:none;stroke:#000000;stroke-width:0.1825;stroke-linecap:butt;stroke-linejoin:bevel;stroke-miterlimit:4;stroke-opacity:1;stroke-dasharray:none"
         sodipodi:type="arc" />
      <path
         transform="matrix(0.49315068,0,0,0.49315068,156.36283,314.09408)"
         d="M 63,49.5 C 63,51.985281 60.985281,54 58.5,54 56.014719,54 54,51.985281 54,49.5 54,47.014719 56.014719,45 58.5,45 c 2.485281,0 4.5,2.014719 4.5,4.5 z"
         sodipodi:ry="4.5"
         sodipodi:rx="4.5"
         sodipodi:cy="49.5"
         sodipodi:cx="58.5"
         id="path2995-1"
         style="fill:none;stroke:#000000;stroke-width:0.1825;stroke-linecap:butt;stroke-linejoin:bevel;stroke-miterlimit:4;stroke-opacity:1;stroke-dasharray:none"
         sodipodi:type="arc" />
      <path
         transform="matrix(0.49315068,0,0,0.49315068,165.36283,314.09408)"
         d="M 63,49.5 C 63,51.985281 60.985281,54 58.5,54 56.014719,54 54,51.985281 54,49.5 54,47.014719 56.014719,45 58.5,45 c 2.485281,0 4.5,2.014719 4.5,4.5 z"
         sodipodi:ry="4.5"
         sodipodi:rx="4.5"
         sodipodi:cy="49.5"
         sodipodi:cx="58.5"
         id="path2995-7"
         style="fill:none;stroke:#000000;stroke-width:0.1825;stroke-linecap:butt;stroke-linejoin:bevel;stroke-miterlimit:4;stroke-opacity:1;stroke-dasharray:none"
         sodipodi:type="arc" />
      <path
         transform="matrix(0.49315068,0,0,0.49315068,174.36283,314.09408)"
         d="M 63,49.5 C 63,51.985281 60.985281,54 58.5,54 56.014719,54 54,51.985281 54,49.5 54,47.014719 56.014719,45 58.5,45 c 2.485281,0 4.5,2.014719 4.5,4.5 z"
         sodipodi:ry="4.5"
         sodipodi:rx="4.5"
         sodipodi:cy="49.5"
         sodipodi:cx="58.5"
         id="path2995-4"
         style="fill:none;stroke:#000000;stroke-width:0.1825;stroke-linecap:butt;stroke-linejoin:bevel;stroke-miterlimit:4;stroke-opacity:1;stroke-dasharray:none"
         sodipodi:type="arc" />
      <path
         transform="matrix(0.49315068,0,0,0.49315068,147.36283,341.09408)"
         d="M 63,49.5 C 63,51.985281 60.985281,54 58.5,54 56.014719,54 54,51.985281 54,49.5 54,47.014719 56.014719,45 58.5,45 c 2.485281,0 4.5,2.014719 4.5,4.5 z"
         sodipodi:ry="4.5"
         sodipodi:rx="4.5"
         sodipodi:cy="49.5"
         sodipodi:cx="58.5"
         id="path2995-8"
         style="fill:none;stroke:#000000;stroke-width:0.1825;stroke-linecap:butt;stroke-linejoin:bevel;stroke-miterlimit:4;stroke-opacity:1;stroke-dasharray:none"
         sodipodi:type="arc" />
      <path
         transform="matrix(0.49315068,0,0,0.49315068,156.36283,341.09408)"
         d="M 63,49.5 C 63,51.985281 60.985281,54 58.5,54 56.014719,54 54,51.985281 54,49.5 54,47.014719 56.014719,45 58.5,45 c 2.485281,0 4.5,2.014719 4.5,4.5 z"
         sodipodi:ry="4.5"
         sodipodi:rx="4.5"
         sodipodi:cy="49.5"
         sodipodi:cx="58.5"
         id="path2995-2"
         style="fill:none;stroke:#000000;stroke-width:0;stroke-linecap:butt;stroke-linejoin:bevel;stroke-miterlimit:4;stroke-opacity:1;stroke-dasharray:none"
         sodipodi:type="arc" />
      <path
         transform="matrix(0.49315068,0,0,0.49315068,165.36283,341.09408)"
         d="M 63,49.5 C 63,51.985281 60.985281,54 58.5,54 56.014719,54 54,51.985281 54,49.5 54,47.014719 56.014719,45 58.5,45 c 2.485281,0 4.5,2.014719 4.5,4.5 z"
         sodipodi:ry="4.5"
         sodipodi:rx="4.5"
         sodipodi:cy="49.5"
         sodipodi:cx="58.5"
         id="path2995-45"
         style="fill:none;stroke:#000000;stroke-width:0.1825;stroke-linecap:butt;stroke-linejoin:bevel;stroke-miterlimit:4;stroke-opacity:1;stroke-dasharray:none"
         sodipodi:type="arc" />
      <path
         transform="matrix(0.49315068,0,0,0.49315068,174.36283,341.09408)"
         d="M 63,49.5 C 63,51.985281 60.985281,54 58.5,54 56.014719,54 54,51.985281 54,49.5 54,47.014719 56.014719,45 58.5,45 c 2.485281,0 4.5,2.014719 4.5,4.5 z"
         sodipodi:ry="4.5"
         sodipodi:rx="4.5"
         sodipodi:cy="49.5"
         sodipodi:cx="58.5"
         id="path2995-5"
         style="fill:none;stroke:#000000;stroke-width:0.1825;stroke-linecap:butt;stroke-linejoin:bevel;stroke-miterlimit:4;stroke-opacity:1;stroke-dasharray:none"
         sodipodi:type="arc" />
      <path
         transform="matrix(0.49315068,0,0,0.49315068,156.36283,341.09408)"
         d="M 63,49.5 C 63,51.985281 60.985281,54 58.5,54 56.014719,54 54,51.985281 54,49.5 54,47.014719 56.014719,45 58.5,45 c 2.485281,0 4.5,2.014719 4.5,4.5 z"
         sodipodi:ry="4.5"
         sodipodi:rx="4.5"
         sodipodi:cy="49.5"
         sodipodi:cx="58.5"
         id="path2995-76-1-1"
         style="fill:none;stroke:#000000;stroke-width:0.1825;stroke-linecap:butt;stroke-linejoin:bevel;stroke-miterlimit:4;stroke-opacity:1;stroke-dasharray:none"
         sodipodi:type="arc" />
      <rect
         y="341.82288"
         x="174.2795"
         height="20.329321"
         width="31.440998"
         id="rect3088"
         style="fill:none;stroke:#000000;stroke-opacity:1" />
      <text
         sodipodi:linespacing="125%"
         id="text3858"
         y="359.75308"
         x="179.33025"
         style="font-size:22px;font-style:normal;font-variant:normal;font-weight:bold;font-stretch:normal;line-height:125%;letter-spacing:0px;word-spacing:0px;fill:#000000;fill-opacity:1;stroke:none;font-family:Segoe UI;-inkscape-font-specification:Segoe UI Bold"
         xml:space="preserve"><tspan
           y="359.75308"
           x="179.33025"
           id="tspan3860"
           sodipodi:role="line">IC</tspan></text>
      <path
         transform="translate(-155.34591,-157.85957)"
         d="m 361.19267,509.62616 c 0,1.55164 -1.25785,2.80949 -2.80949,2.80949 -1.55164,0 -2.80949,-1.25785 -2.80949,-2.80949 0,-1.55164 1.25785,-2.80949 2.80949,-2.80949 1.55164,0 2.80949,1.25785 2.80949,2.80949 z"
         sodipodi:ry="2.8094869"
         sodipodi:rx="2.8094869"
         sodipodi:cy="509.62616"
         sodipodi:cx="358.38318"
         id="path3892"
         style="fill:none;stroke:#000000;stroke-width:0.69;stroke-linecap:butt;stroke-linejoin:bevel;stroke-miterlimit:4;stroke-opacity:1;stroke-dasharray:none"
         sodipodi:type="arc" />
    </g>
    <g
       id="g4168"
       transform="matrix(0.70710678,0.70710678,-0.70710678,0.70710678,309.99113,-37.059579)">
      <path
         transform="matrix(0.34871019,0.34871019,-0.34871019,0.34871019,116.25518,367.56747)"
         d="M 63,49.5 C 63,51.985281 60.985281,54 58.5,54 56.014719,54 54,51.985281 54,49.5 54,47.014719 56.014719,45 58.5,45 c 2.485281,0 4.5,2.014719 4.5,4.5 z"
         sodipodi:ry="4.5"
         sodipodi:rx="4.5"
         sodipodi:cy="49.5"
         sodipodi:cx="58.5"
         id="path2995-76-2"
         style="fill:none;stroke:#000000;stroke-width:0.1825;stroke-linecap:butt;stroke-linejoin:bevel;stroke-miterlimit:4;stroke-opacity:1;stroke-dasharray:none"
         sodipodi:type="arc" />
      <path
         transform="matrix(0.68773763,0.68773763,-0.68773763,0.68773763,145.03636,362.78494)"
         d="M 63,49.5 C 63,51.985281 60.985281,54 58.5,54 56.014719,54 54,51.985281 54,49.5 54,47.014719 56.014719,45 58.5,45 c 2.485281,0 4.5,2.014719 4.5,4.5 z"
         sodipodi:ry="4.5"
         sodipodi:rx="4.5"
         sodipodi:cy="49.5"
         sodipodi:cx="58.5"
         id="path2995-76-3"
         style="fill:none;stroke:#000000;stroke-width:0.09253472;stroke-linecap:butt;stroke-linejoin:bevel;stroke-miterlimit:4;stroke-opacity:1;stroke-dasharray:none"
         sodipodi:type="arc" />
      <path
         transform="matrix(0.68799182,0.68799182,-0.6839174,0.6839174,81.192777,299.31956)"
         d="M 63,49.5 C 63,51.985281 60.985281,54 58.5,54 56.014719,54 54,51.985281 54,49.5 54,47.014719 56.014719,45 58.5,45 c 2.485281,0 4.5,2.014719 4.5,4.5 z"
         sodipodi:ry="4.5"
         sodipodi:rx="4.5"
         sodipodi:cy="49.5"
         sodipodi:cx="58.5"
         id="path2995-76-22"
         style="fill:none;stroke:#000000;stroke-width:0.09277566;stroke-linecap:butt;stroke-linejoin:bevel;stroke-miterlimit:4;stroke-opacity:1;stroke-dasharray:none"
         sodipodi:type="arc" />
      <path
         transform="matrix(0.34871019,0.34871019,-0.34871019,0.34871019,107.96101,375.86164)"
         d="M 63,49.5 C 63,51.985281 60.985281,54 58.5,54 56.014719,54 54,51.985281 54,49.5 54,47.014719 56.014719,45 58.5,45 c 2.485281,0 4.5,2.014719 4.5,4.5 z"
         sodipodi:ry="4.5"
         sodipodi:rx="4.5"
         sodipodi:cy="49.5"
         sodipodi:cx="58.5"
         id="path2995-76-2-4"
         style="fill:none;stroke:#000000;stroke-width:0.1825;stroke-linecap:butt;stroke-linejoin:bevel;stroke-miterlimit:4;stroke-opacity:1;stroke-dasharray:none"
         sodipodi:type="arc" />
      <text
         transform="matrix(0.70710678,0.70710678,-0.70710678,0.70710678,0,0)"
         sodipodi:linespacing="125%"
         id="text3862"
         y="200.80562"
         x="338.82285"
         style="font-size:26.55494881px;font-style:normal;font-variant:normal;font-weight:bold;font-stretch:normal;line-height:125%;letter-spacing:0px;word-spacing:0px;fill:#000000;fill-opacity:1;stroke:none;font-family:Segoe UI;-inkscape-font-specification:Segoe UI Bold"
         xml:space="preserve"><tspan
           style="font-size:19.17857361px;font-weight:normal"
           y="200.80562"
           x="338.82285"
           id="tspan3864"
           sodipodi:role="line">Battery</tspan><tspan
           style="font-size:19.17857361px;font-weight:normal"
           id="tspan3866"
           y="224.77884"
           x="338.82285"
           sodipodi:role="line">Holder</tspan></text>
      <path
         inkscape:connector-curvature="0"
         id="path9745"
         d="m 119.51538,406.09237 -7.42849,7.42849"
         style="fill:none;stroke:#000000;stroke-width:1.33705962px;stroke-linecap:butt;stroke-linejoin:miter;stroke-opacity:1" />
    </g>
    <path
       style="fill:none;stroke:#000000;stroke-width:1px;stroke-linecap:butt;stroke-linejoin:miter;stroke-opacity:1"
       d="m 191.36488,345.71986 0,-4.76666"
       id="path4241-6"
       inkscape:connector-curvature="0" />
    <path
       sodipodi:type="arc"
       style="fill:none;stroke:#000000;stroke-width:0.31379321;stroke-miterlimit:4;stroke-opacity:1;stroke-dasharray:none"
       id="path4180-1"
       sodipodi:cx="150.19705"
       sodipodi:cy="302.76587"
       sodipodi:rx="2.588516"
       sodipodi:ry="2.588516"
       d="m 152.78557,302.76587 a 2.588516,2.588516 0 1 1 -5.17703,0 2.588516,2.588516 0 1 1 5.17703,0 z"
       transform="matrix(0,0.28681308,-0.28681308,0,278.13225,339.8462)" />
    <path
       sodipodi:type="arc"
       style="fill:none;stroke:#000000;stroke-width:0.31379321;stroke-miterlimit:4;stroke-opacity:1;stroke-dasharray:none"
       id="path4180-3-1"
       sodipodi:cx="150.19705"
       sodipodi:cy="302.76587"
       sodipodi:rx="2.588516"
       sodipodi:ry="2.588516"
       d="m 152.78557,302.76587 a 2.588516,2.588516 0 1 1 -5.17703,0 2.588516,2.588516 0 1 1 5.17703,0 z"
       transform="matrix(0,0.28681308,-0.28681308,0,269.10529,339.8462)" />
    <path
       sodipodi:type="arc"
       style="fill:none;stroke:#000000;stroke-width:0.31379321;stroke-miterlimit:4;stroke-opacity:1;stroke-dasharray:none"
       id="path4180-9-5"
       sodipodi:cx="150.19705"
       sodipodi:cy="302.76587"
       sodipodi:rx="2.588516"
       sodipodi:ry="2.588516"
       d="m 152.78557,302.76587 a 2.588516,2.588516 0 1 1 -5.17703,0 2.588516,2.588516 0 1 1 5.17703,0 z"
       transform="matrix(0,0.28681308,-0.28681308,0,260.13837,339.8462)" />
    <path
       style="fill:none;stroke:#000000;stroke-width:1px;stroke-linecap:butt;stroke-linejoin:miter;stroke-opacity:1"
       d="m 191.29504,377.1128 0,4.76666"
       id="path4241-0"
       inkscape:connector-curvature="0" />
    <path
       style="fill:none;stroke:#000000;stroke-width:1px;stroke-linecap:butt;stroke-linejoin:miter;stroke-opacity:1"
       d="m 182.26808,377.1128 0,4.76666"
       id="path4241-6-6"
       inkscape:connector-curvature="0" />
    <path
       style="fill:none;stroke:#000000;stroke-width:1px;stroke-linecap:butt;stroke-linejoin:miter;stroke-opacity:1"
       d="m 173.30116,377.1128 0,4.76666"
       id="path4241-63-4"
       inkscape:connector-curvature="0" />
    <path
       sodipodi:type="arc"
       style="fill:none;stroke:#000000;stroke-width:0.31379321;stroke-miterlimit:4;stroke-opacity:1;stroke-dasharray:none"
       id="path4180-4-2-7-7"
       sodipodi:cx="150.19705"
       sodipodi:cy="302.76587"
       sodipodi:rx="2.588516"
       sodipodi:ry="2.588516"
       d="m 152.78557,302.76587 a 2.588516,2.588516 0 1 1 -5.17703,0 2.588516,2.588516 0 1 1 5.17703,0 z"
       transform="matrix(0,0.28681308,-0.28681308,0,234.8015,395.71227)" />
    <path
       sodipodi:type="arc"
       style="fill:none;stroke:#000000;stroke-width:0.31379321;stroke-miterlimit:4;stroke-opacity:1;stroke-dasharray:none"
       id="path4180-4-2-7-8"
       sodipodi:cx="150.19705"
       sodipodi:cy="302.76587"
       sodipodi:rx="2.588516"
       sodipodi:ry="2.588516"
       d="m 152.78557,302.76587 a 2.588516,2.588516 0 1 1 -5.17703,0 2.588516,2.588516 0 1 1 5.17703,0 z"
       transform="matrix(0,0.28681308,-0.28681308,0,278.90866,395.71227)" />
    <path
       sodipodi:type="arc"
       style="fill:none;stroke:#000000;stroke-width:0.31379321;stroke-miterlimit:4;stroke-opacity:1;stroke-dasharray:none"
       id="path4180-4-2-7-9"
       sodipodi:cx="150.19705"
       sodipodi:cy="302.76587"
       sodipodi:rx="2.588516"
       sodipodi:ry="2.588516"
       d="m 152.78557,302.76587 a 2.588516,2.588516 0 1 1 -5.17703,0 2.588516,2.588516 0 1 1 5.17703,0 z"
       transform="matrix(0,0.28681308,-0.28681308,0,323.01578,395.71227)" />
    <text
       xml:space="preserve"
       style="font-size:40px;font-style:normal;font-variant:normal;font-weight:normal;font-stretch:normal;line-height:125%;letter-spacing:0px;word-spacing:0px;fill:#000000;fill-opacity:1;stroke:none;font-family:Doctor Who;-inkscape-font-specification:Doctor Who"
       x="122.5"
       y="400.39789"
       id="text4520"
       sodipodi:linespacing="125%"><tspan
         sodipodi:role="line"
         id="tspan4522"
         x="122.5"
         y="400.39789" /></text>
    <g
       id="g4538"
       transform="translate(5.8083771,19.950513)">
      <text
         sodipodi:linespacing="125%"
         id="text4516"
         y="388.43341"
         x="118.17741"
         style="font-size:16.16461563px;font-style:normal;font-variant:normal;font-weight:normal;font-stretch:normal;line-height:125%;letter-spacing:0px;word-spacing:0px;fill:#000000;fill-opacity:1;stroke:none;font-family:Monospace;-inkscape-font-specification:Monospace"
         xml:space="preserve"><tspan
           y="388.43341"
           x="118.17741"
           id="tspan4518"
           sodipodi:role="line">Color-O-Tron</tspan></text>
      <text
         sodipodi:linespacing="125%"
         id="text4524"
         y="386.38086"
         x="176.16605"
         style="font-size:10.22774601px;font-style:normal;font-variant:normal;font-weight:normal;font-stretch:normal;text-align:center;line-height:125%;letter-spacing:0px;word-spacing:0px;writing-mode:lr-tb;text-anchor:middle;fill:#000000;fill-opacity:1;stroke:none;font-family:Liberation Sans;-inkscape-font-specification:Liberation Sans"
         xml:space="preserve"><tspan
           y="386.38086"
           x="176.16605"
           id="tspan4526"
           sodipodi:role="line" /><tspan
           id="tspan4530"
           y="399.16553"
           x="176.16605"
           sodipodi:role="line">Pattern Matching Game</tspan></text>
      <text
         sodipodi:linespacing="125%"
         id="text4534"
         y="414.25198"
         x="119.46452"
         style="font-size:13.82045937px;font-style:normal;font-variant:normal;font-weight:normal;font-stretch:normal;text-align:start;line-height:125%;letter-spacing:0px;word-spacing:0px;writing-mode:lr-tb;text-anchor:start;fill:#000000;fill-opacity:1;stroke:none;font-family:Liberation Sans;-inkscape-font-specification:Liberation Sans"
         xml:space="preserve"><tspan
           y="414.25198"
           x="119.46452"
           id="tspan4536"
           sodipodi:role="line">http://git.io/1DgfAg</tspan></text>
    </g>
    <g
       id="g4621"
       transform="matrix(0.70710678,0.70710678,-0.70710678,0.70710678,332.35339,-20.839173)">
      <path
         transform="matrix(0,-0.28681308,0.28681308,0,81.49459,382.98646)"
         d="m 152.78557,302.76587 c 0,1.4296 -1.15892,2.58852 -2.58852,2.58852 -1.4296,0 -2.58851,-1.15892 -2.58851,-2.58852 0,-1.4296 1.15891,-2.58852 2.58851,-2.58852 1.4296,0 2.58852,1.15892 2.58852,2.58852 z"
         sodipodi:ry="2.588516"
         sodipodi:rx="2.588516"
         sodipodi:cy="302.76587"
         sodipodi:cx="150.19705"
         id="path4180-9"
         style="fill:none;stroke:#000000;stroke-width:0.31379321;stroke-miterlimit:4;stroke-opacity:1;stroke-dasharray:none"
         sodipodi:type="arc" />
      <path
         transform="matrix(0,-0.28681308,0.28681308,0,81.49459,373.64956)"
         d="m 152.78557,302.76587 c 0,1.4296 -1.15892,2.58852 -2.58852,2.58852 -1.4296,0 -2.58851,-1.15892 -2.58851,-2.58852 0,-1.4296 1.15891,-2.58852 2.58851,-2.58852 1.4296,0 2.58852,1.15892 2.58852,2.58852 z"
         sodipodi:ry="2.588516"
         sodipodi:rx="2.588516"
         sodipodi:cy="302.76587"
         sodipodi:cx="150.19705"
         id="path4180-4-2"
         style="fill:none;stroke:#000000;stroke-width:0.31379321;stroke-miterlimit:4;stroke-opacity:1;stroke-dasharray:none"
         sodipodi:type="arc" />
    </g>
    <path
       sodipodi:type="arc"
       style="fill:none;stroke:#000000;stroke-width:0.13355159;stroke-miterlimit:4;stroke-opacity:1;stroke-dasharray:none"
       id="path4575"
       sodipodi:cx="150.40178"
       sodipodi:cy="335.53183"
       sodipodi:rx="1.8303572"
       sodipodi:ry="1.8303572"
       d="m 152.23214,335.53183 a 1.8303572,1.8303572 0 1 1 -3.66072,0 1.8303572,1.8303572 0 1 1 3.66072,0 z"
       transform="matrix(5.2414202,0,0,5.2414202,-573.98712,-1423.4238)" />
    <g
       id="g4617"
       transform="translate(31.969986,0)">
      <path
         transform="matrix(0,-0.28681308,0.28681308,0,72.52767,382.98646)"
         d="m 152.78557,302.76587 c 0,1.4296 -1.15892,2.58852 -2.58852,2.58852 -1.4296,0 -2.58851,-1.15892 -2.58851,-2.58852 0,-1.4296 1.15891,-2.58852 2.58851,-2.58852 1.4296,0 2.58852,1.15892 2.58852,2.58852 z"
         sodipodi:ry="2.588516"
         sodipodi:rx="2.588516"
         sodipodi:cy="302.76587"
         sodipodi:cx="150.19705"
         id="path4180-3"
         style="fill:none;stroke:#000000;stroke-width:0.31379321;stroke-miterlimit:4;stroke-opacity:1;stroke-dasharray:none"
         sodipodi:type="arc" />
      <path
         transform="matrix(0,-0.28681308,0.28681308,0,72.52767,373.64956)"
         d="m 152.78557,302.76587 c 0,1.4296 -1.15892,2.58852 -2.58852,2.58852 -1.4296,0 -2.58851,-1.15892 -2.58851,-2.58852 0,-1.4296 1.15891,-2.58852 2.58851,-2.58852 1.4296,0 2.58852,1.15892 2.58852,2.58852 z"
         sodipodi:ry="2.588516"
         sodipodi:rx="2.588516"
         sodipodi:cy="302.76587"
         sodipodi:cx="150.19705"
         id="path4180-4-3"
         style="fill:none;stroke:#000000;stroke-width:0.31379321;stroke-miterlimit:4;stroke-opacity:1;stroke-dasharray:none"
         sodipodi:type="arc" />
    </g>
    <path
       sodipodi:type="arc"
       style="fill:none;stroke:#000000;stroke-width:0.13355159;stroke-miterlimit:4;stroke-opacity:1;stroke-dasharray:none"
       id="path4575-2"
       sodipodi:cx="150.40178"
       sodipodi:cy="335.53183"
       sodipodi:rx="1.8303572"
       sodipodi:ry="1.8303572"
       d="m 152.23214,335.53183 a 1.8303572,1.8303572 0 1 1 -3.66072,0 1.8303572,1.8303572 0 1 1 3.66072,0 z"
       transform="matrix(5.2414202,0,0,5.2414202,-596.98405,-1423.4238)" />
    <g
       id="g4613"
       transform="matrix(0.70710678,-0.70710678,0.70710678,0.70710678,-175.01719,204.49435)">
      <path
         transform="matrix(0,-0.28681308,0.28681308,0,63.50071,382.98646)"
         d="m 152.78557,302.76587 c 0,1.4296 -1.15892,2.58852 -2.58852,2.58852 -1.4296,0 -2.58851,-1.15892 -2.58851,-2.58852 0,-1.4296 1.15891,-2.58852 2.58851,-2.58852 1.4296,0 2.58852,1.15892 2.58852,2.58852 z"
         sodipodi:ry="2.588516"
         sodipodi:rx="2.588516"
         sodipodi:cy="302.76587"
         sodipodi:cx="150.19705"
         id="path4180"
         style="fill:none;stroke:#000000;stroke-width:0.31379321;stroke-miterlimit:4;stroke-opacity:1;stroke-dasharray:none"
         sodipodi:type="arc" />
      <path
         transform="matrix(0,-0.28681308,0.28681308,0,63.50071,373.64956)"
         d="m 152.78557,302.76587 c 0,1.4296 -1.15892,2.58852 -2.58852,2.58852 -1.4296,0 -2.58851,-1.15892 -2.58851,-2.58852 0,-1.4296 1.15891,-2.58852 2.58851,-2.58852 1.4296,0 2.58852,1.15892 2.58852,2.58852 z"
         sodipodi:ry="2.588516"
         sodipodi:rx="2.588516"
         sodipodi:cy="302.76587"
         sodipodi:cx="150.19705"
         id="path4180-4"
         style="fill:none;stroke:#000000;stroke-width:0.31379321;stroke-miterlimit:4;stroke-opacity:1;stroke-dasharray:none"
         sodipodi:type="arc" />
    </g>
    <path
       sodipodi:type="arc"
       style="fill:none;stroke:#000000;stroke-width:0.13355159;stroke-miterlimit:4;stroke-opacity:1;stroke-dasharray:none"
       id="path4575-4"
       sodipodi:cx="150.40178"
       sodipodi:cy="335.53183"
       sodipodi:rx="1.8303572"
       sodipodi:ry="1.8303572"
       d="m 152.23214,335.53183 a 1.8303572,1.8303572 0 1 1 -3.66072,0 1.8303572,1.8303572 0 1 1 3.66072,0 z"
       transform="matrix(5.2414202,0,0,5.2414202,-619.981,-1423.4238)" />
    <path
       style="fill:none;stroke:#000000;stroke-width:1px;stroke-linecap:butt;stroke-linejoin:miter;stroke-opacity:1"
       d="m 182.33253,345.69734 -10.10152,-6.56599"
       id="path4668"
       inkscape:connector-curvature="0" />
    <path
       style="fill:none;stroke:#000000;stroke-width:1px;stroke-linecap:butt;stroke-linejoin:miter;stroke-opacity:1"
       d="m 200.57842,345.57107 9.84898,-6.56599"
       id="path4670"
       inkscape:connector-curvature="0" />
  </g>
</svg>
