<?xml version="1.0" encoding="UTF-8" standalone="no"?>
<!-- Created with Inkscape (http://www.inkscape.org/) -->

<svg
   xmlns:dc="http://purl.org/dc/elements/1.1/"
   xmlns:cc="http://creativecommons.org/ns#"
   xmlns:rdf="http://www.w3.org/1999/02/22-rdf-syntax-ns#"
   xmlns:svg="http://www.w3.org/2000/svg"
   xmlns="http://www.w3.org/2000/svg"
   xmlns:sodipodi="http://sodipodi.sourceforge.net/DTD/sodipodi-0.dtd"
   xmlns:inkscape="http://www.inkscape.org/namespaces/inkscape"
   width="744.09448819"
   height="1052.3622047"
   id="svg2"
   version="1.1"
   inkscape:version="0.48.5 r10040"
   sodipodi:docname="laser_cut_board.svg"
   inkscape:export-filename="/home/derek/code/Color-O-Tron/laser_cut_board.png"
   inkscape:export-xdpi="225.39999"
   inkscape:export-ydpi="225.39999">
  <defs
     id="defs4" />
  <sodipodi:namedview
     id="base"
     pagecolor="#ffffff"
     bordercolor="#666666"
     borderopacity="1.0"
     inkscape:pageopacity="0.0"
     inkscape:pageshadow="2"
     inkscape:zoom="7.9195959"
     inkscape:cx="174.33227"
     inkscape:cy="709.7104"
     inkscape:document-units="px"
     inkscape:current-layer="layer1"
     showgrid="false"
     inkscape:window-width="1366"
     inkscape:window-height="719"
     inkscape:window-x="0"
     inkscape:window-y="30"
     inkscape:window-maximized="1" />
  <metadata
     id="metadata7">
    <rdf:RDF>
      <cc:Work
         rdf:about="">
        <dc:format>image/svg+xml</dc:format>
        <dc:type
           rdf:resource="http://purl.org/dc/dcmitype/StillImage" />
        <dc:title></dc:title>
      </cc:Work>
    </rdf:RDF>
  </metadata>
  <g
     inkscape:label="Layer 1"
     inkscape:groupmode="layer"
     id="layer1">
    <rect
       style="fill:none;fill-opacity:1;stroke:#000000;stroke-width:1;stroke-miterlimit:4;stroke-opacity:1;stroke-dasharray:none"
       id="rect2985"
       width="158.72021"
       height="158.72021"
       x="82.354179"
       y="284.14496" />
    <g
       id="g4091"
       transform="matrix(-1,0,0,-1,376.60168,713.42977)">
      <path
         transform="matrix(0.49315068,0,0,0.49315068,147.36283,314.09408)"
         d="M 63,49.5 C 63,51.985281 60.985281,54 58.5,54 56.014719,54 54,51.985281 54,49.5 54,47.014719 56.014719,45 58.5,45 c 2.485281,0 4.5,2.014719 4.5,4.5 z"
         sodipodi:ry="4.5"
         sodipodi:rx="4.5"
         sodipodi:cy="49.5"
         sodipodi:cx="58.5"
         id="path2995"
         style="fill:none;stroke:#000000;stroke-width:0.1825;stroke-linecap:butt;stroke-linejoin:bevel;stroke-miterlimit:4;stroke-opacity:1;stroke-dasharray:none"
         sodipodi:type="arc" />
      <path
         transform="matrix(0.49315068,0,0,0.49315068,156.36283,314.09408)"
         d="M 63,49.5 C 63,51.985281 60.985281,54 58.5,54 56.014719,54 54,51.985281 54,49.5 54,47.014719 56.014719,45 58.5,45 c 2.485281,0 4.5,2.014719 4.5,4.5 z"
         sodipodi:ry="4.5"
         sodipodi:rx="4.5"
         sodipodi:cy="49.5"
         sodipodi:cx="58.5"
         id="path2995-1"
         style="fill:none;stroke:#000000;stroke-width:0.1825;stroke-linecap:butt;stroke-linejoin:bevel;stroke-miterlimit:4;stroke-opacity:1;stroke-dasharray:none"
         sodipodi:type="arc" />
      <path
         transform="matrix(0.49315068,0,0,0.49315068,165.36283,314.09408)"
         d="M 63,49.5 C 63,51.985281 60.985281,54 58.5,54 56.014719,54 54,51.985281 54,49.5 54,47.014719 56.014719,45 58.5,45 c 2.485281,0 4.5,2.014719 4.5,4.5 z"
         sodipodi:ry="4.5"
         sodipodi:rx="4.5"
         sodipodi:cy="49.5"
         sodipodi:cx="58.5"
         id="path2995-7"
         style="fill:none;stroke:#000000;stroke-width:0.1825;stroke-linecap:butt;stroke-linejoin:bevel;stroke-miterlimit:4;stroke-opacity:1;stroke-dasharray:none"
         sodipodi:type="arc" />
      <path
         transform="matrix(0.49315068,0,0,0.49315068,174.36283,314.09408)"
         d="M 63,49.5 C 63,51.985281 60.985281,54 58.5,54 56.014719,54 54,51.985281 54,49.5 54,47.014719 56.014719,45 58.5,45 c 2.485281,0 4.5,2.014719 4.5,4.5 z"
         sodipodi:ry="4.5"
         sodipodi:rx="4.5"
         sodipodi:cy="49.5"
         sodipodi:cx="58.5"
         id="path2995-4"
         style="fill:none;stroke:#000000;stroke-width:0.1825;stroke-linecap:butt;stroke-linejoin:bevel;stroke-miterlimit:4;stroke-opacity:1;stroke-dasharray:none"
         sodipodi:type="arc" />
      <path
         transform="matrix(0.49315068,0,0,0.49315068,147.36283,341.09408)"
         d="M 63,49.5 C 63,51.985281 60.985281,54 58.5,54 56.014719,54 54,51.985281 54,49.5 54,47.014719 56.014719,45 58.5,45 c 2.485281,0 4.5,2.014719 4.5,4.5 z"
         sodipodi:ry="4.5"
         sodipodi:rx="4.5"
         sodipodi:cy="49.5"
         sodipodi:cx="58.5"
         id="path2995-8"
         style="fill:none;stroke:#000000;stroke-width:0.1825;stroke-linecap:butt;stroke-linejoin:bevel;stroke-miterlimit:4;stroke-opacity:1;stroke-dasharray:none"
         sodipodi:type="arc" />
      <path
         transform="matrix(0.49315068,0,0,0.49315068,156.36283,341.09408)"
         d="M 63,49.5 C 63,51.985281 60.985281,54 58.5,54 56.014719,54 54,51.985281 54,49.5 54,47.014719 56.014719,45 58.5,45 c 2.485281,0 4.5,2.014719 4.5,4.5 z"
         sodipodi:ry="4.5"
         sodipodi:rx="4.5"
         sodipodi:cy="49.5"
         sodipodi:cx="58.5"
         id="path2995-2"
         style="fill:none;stroke:#000000;stroke-width:0;stroke-linecap:butt;stroke-linejoin:bevel;stroke-miterlimit:4;stroke-opacity:1;stroke-dasharray:none"
         sodipodi:type="arc" />
      <path
         transform="matrix(0.49315068,0,0,0.49315068,165.36283,341.09408)"
         d="M 63,49.5 C 63,51.985281 60.985281,54 58.5,54 56.014719,54 54,51.985281 54,49.5 54,47.014719 56.014719,45 58.5,45 c 2.485281,0 4.5,2.014719 4.5,4.5 z"
         sodipodi:ry="4.5"
         sodipodi:rx="4.5"
         sodipodi:cy="49.5"
         sodipodi:cx="58.5"
         id="path2995-45"
         style="fill:none;stroke:#000000;stroke-width:0.1825;stroke-linecap:butt;stroke-linejoin:bevel;stroke-miterlimit:4;stroke-opacity:1;stroke-dasharray:none"
         sodipodi:type="arc" />
      <path
         transform="matrix(0.49315068,0,0,0.49315068,174.36283,341.09408)"
         d="M 63,49.5 C 63,51.985281 60.985281,54 58.5,54 56.014719,54 54,51.985281 54,49.5 54,47.014719 56.014719,45 58.5,45 c 2.485281,0 4.5,2.014719 4.5,4.5 z"
         sodipodi:ry="4.5"
         sodipodi:rx="4.5"
         sodipodi:cy="49.5"
         sodipodi:cx="58.5"
         id="path2995-5"
         style="fill:none;stroke:#000000;stroke-width:0.1825;stroke-linecap:butt;stroke-linejoin:bevel;stroke-miterlimit:4;stroke-opacity:1;stroke-dasharray:none"
         sodipodi:type="arc" />
      <path
         transform="matrix(0.49315068,0,0,0.49315068,156.36283,341.09408)"
         d="M 63,49.5 C 63,51.985281 60.985281,54 58.5,54 56.014719,54 54,51.985281 54,49.5 54,47.014719 56.014719,45 58.5,45 c 2.485281,0 4.5,2.014719 4.5,4.5 z"
         sodipodi:ry="4.5"
         sodipodi:rx="4.5"
         sodipodi:cy="49.5"
         sodipodi:cx="58.5"
         id="path2995-76-1-1"
         style="fill:none;stroke:#000000;stroke-width:0.1825;stroke-linecap:butt;stroke-linejoin:bevel;stroke-miterlimit:4;stroke-opacity:1;stroke-dasharray:none"
         sodipodi:type="arc" />
      <rect
         y="341.82288"
         x="174.2795"
         height="20.329321"
         width="31.440998"
         id="rect3088"
         style="fill:none;stroke:#000000;stroke-opacity:1" />
      <text
         sodipodi:linespacing="125%"
         id="text3858"
         y="359.75308"
         x="179.33025"
         style="font-size:22px;font-style:normal;font-variant:normal;font-weight:bold;font-stretch:normal;line-height:125%;letter-spacing:0px;word-spacing:0px;fill:#000000;fill-opacity:1;stroke:none;font-family:Segoe UI;-inkscape-font-specification:Segoe UI Bold"
         xml:space="preserve"><tspan
           y="359.75308"
           x="179.33025"
           id="tspan3860"
           sodipodi:role="line">IC</tspan></text>
      <path
         transform="translate(-155.34591,-157.85957)"
         d="m 361.19267,509.62616 c 0,1.55164 -1.25785,2.80949 -2.80949,2.80949 -1.55164,0 -2.80949,-1.25785 -2.80949,-2.80949 0,-1.55164 1.25785,-2.80949 2.80949,-2.80949 1.55164,0 2.80949,1.25785 2.80949,2.80949 z"
         sodipodi:ry="2.8094869"
         sodipodi:rx="2.8094869"
         sodipodi:cy="509.62616"
         sodipodi:cx="358.38318"
         id="path3892"
         style="fill:none;stroke:#000000;stroke-width:0.69;stroke-linecap:butt;stroke-linejoin:bevel;stroke-miterlimit:4;stroke-opacity:1;stroke-dasharray:none"
         sodipodi:type="arc" />
    </g>
    <g
       id="g4168"
       transform="matrix(0.70710678,0.70710678,-0.70710678,0.70710678,309.99113,-37.059579)">
      <path
         transform="matrix(0.34871019,0.34871019,-0.34871019,0.34871019,116.25518,367.56747)"
         d="M 63,49.5 C 63,51.985281 60.985281,54 58.5,54 56.014719,54 54,51.985281 54,49.5 54,47.014719 56.014719,45 58.5,45 c 2.485281,0 4.5,2.014719 4.5,4.5 z"
         sodipodi:ry="4.5"
         sodipodi:rx="4.5"
         sodipodi:cy="49.5"
         sodipodi:cx="58.5"
         id="path2995-76-2"
         style="fill:none;stroke:#000000;stroke-width:0.1825;stroke-linecap:butt;stroke-linejoin:bevel;stroke-miterlimit:4;stroke-opacity:1;stroke-dasharray:none"
         sodipodi:type="arc" />
      <path
         transform="matrix(0.68773763,0.68773763,-0.68773763,0.68773763,145.03636,362.78494)"
         d="M 63,49.5 C 63,51.985281 60.985281,54 58.5,54 56.014719,54 54,51.985281 54,49.5 54,47.014719 56.014719,45 58.5,45 c 2.485281,0 4.5,2.014719 4.5,4.5 z"
         sodipodi:ry="4.5"
         sodipodi:rx="4.5"
         sodipodi:cy="49.5"
         sodipodi:cx="58.5"
         id="path2995-76-3"
         style="fill:none;stroke:#000000;stroke-width:0.09253472;stroke-linecap:butt;stroke-linejoin:bevel;stroke-miterlimit:4;stroke-opacity:1;stroke-dasharray:none"
         sodipodi:type="arc" />
      <path
         transform="matrix(0.68799182,0.68799182,-0.6839174,0.6839174,81.192777,299.31956)"
         d="M 63,49.5 C 63,51.985281 60.985281,54 58.5,54 56.014719,54 54,51.985281 54,49.5 54,47.014719 56.014719,45 58.5,45 c 2.485281,0 4.5,2.014719 4.5,4.5 z"
         sodipodi:ry="4.5"
         sodipodi:rx="4.5"
         sodipodi:cy="49.5"
         sodipodi:cx="58.5"
         id="path2995-76-22"
         style="fill:none;stroke:#000000;stroke-width:0.09277566;stroke-linecap:butt;stroke-linejoin:bevel;stroke-miterlimit:4;stroke-opacity:1;stroke-dasharray:none"
         sodipodi:type="arc" />
      <path
         transform="matrix(0.34871019,0.34871019,-0.34871019,0.34871019,107.96101,375.86164)"
         d="M 63,49.5 C 63,51.985281 60.985281,54 58.5,54 56.014719,54 54,51.985281 54,49.5 54,47.014719 56.014719,45 58.5,45 c 2.485281,0 4.5,2.014719 4.5,4.5 z"
         sodipodi:ry="4.5"
         sodipodi:rx="4.5"
         sodipodi:cy="49.5"
         sodipodi:cx="58.5"
         id="path2995-76-2-4"
         style="fill:none;stroke:#000000;stroke-width:0.1825;stroke-linecap:butt;stroke-linejoin:bevel;stroke-miterlimit:4;stroke-opacity:1;stroke-dasharray:none"
         sodipodi:type="arc" />
      <text
         transform="matrix(0.70710678,0.70710678,-0.70710678,0.70710678,0,0)"
         sodipodi:linespacing="125%"
         id="text3862"
         y="200.80562"
         x="338.82285"
         style="font-size:26.55494881px;font-style:normal;font-variant:normal;font-weight:bold;font-stretch:normal;line-height:125%;letter-spacing:0px;word-spacing:0px;fill:#000000;fill-opacity:1;stroke:none;font-family:Segoe UI;-inkscape-font-specification:Segoe UI Bold"
         xml:space="preserve"><tspan
           style="font-size:19.17857361px;font-weight:normal"
           y="200.80562"
           x="338.82285"
           id="tspan3864"
           sodipodi:role="line">Battery</tspan><tspan
           style="font-size:19.17857361px;font-weight:normal"
           id="tspan3866"
           y="224.77884"
           x="338.82285"
           sodipodi:role="line">Holder</tspan></text>
      <path
         inkscape:connector-curvature="0"
         id="path9745"
         d="m 119.51538,406.09237 -7.42849,7.42849"
         style="fill:none;stroke:#000000;stroke-width:1.33705962px;stroke-linecap:butt;stroke-linejoin:miter;stroke-opacity:1" />
    </g>
    <path
       style="fill:none;stroke:#000000;stroke-width:1px;stroke-linecap:butt;stroke-linejoin:miter;stroke-opacity:1"
       d="m 191.36488,345.71986 0,-4.76666"
       id="path4241-6"
       inkscape:connector-curvature="0" />
    <path
       sodipodi:type="arc"
       style="fill:none;stroke:#000000;stroke-width:0.31379321;stroke-miterlimit:4;stroke-opacity:1;stroke-dasharray:none"
       id="path4180-1"
       sodipodi:cx="150.19705"
       sodipodi:cy="302.76587"
       sodipodi:rx="2.588516"
       sodipodi:ry="2.588516"
       d="m 152.78557,302.76587 a 2.588516,2.588516 0 1 1 -5.17703,0 2.588516,2.588516 0 1 1 5.17703,0 z"
       transform="matrix(0,0.28681308,-0.28681308,0,278.13225,339.8462)" />
    <path
       sodipodi:type="arc"
       style="fill:none;stroke:#000000;stroke-width:0.31379321;stroke-miterlimit:4;stroke-opacity:1;stroke-dasharray:none"
       id="path4180-3-1"
       sodipodi:cx="150.19705"
       sodipodi:cy="302.76587"
       sodipodi:rx="2.588516"
       sodipodi:ry="2.588516"
       d="m 152.78557,302.76587 a 2.588516,2.588516 0 1 1 -5.17703,0 2.588516,2.588516 0 1 1 5.17703,0 z"
       transform="matrix(0,0.28681308,-0.28681308,0,269.10529,339.8462)" />
    <path
       sodipodi:type="arc"
       style="fill:none;stroke:#000000;stroke-width:0.31379321;stroke-miterlimit:4;stroke-opacity:1;stroke-dasharray:none"
       id="path4180-9-5"
       sodipodi:cx="150.19705"
       sodipodi:cy="302.76587"
       sodipodi:rx="2.588516"
       sodipodi:ry="2.588516"
       d="m 152.78557,302.76587 a 2.588516,2.588516 0 1 1 -5.17703,0 2.588516,2.588516 0 1 1 5.17703,0 z"
       transform="matrix(0,0.28681308,-0.28681308,0,260.13837,339.8462)" />
    <path
       style="fill:none;stroke:#000000;stroke-width:1px;stroke-linecap:butt;stroke-linejoin:miter;stroke-opacity:1"
       d="m 191.29504,377.1128 0,4.76666"
       id="path4241-0"
       inkscape:connector-curvature="0" />
    <path
       style="fill:none;stroke:#000000;stroke-width:1px;stroke-linecap:butt;stroke-linejoin:miter;stroke-opacity:1"
       d="m 182.26808,377.1128 0,4.76666"
       id="path4241-6-6"
       inkscape:connector-curvature="0" />
    <path
       style="fill:none;stroke:#000000;stroke-width:1px;stroke-linecap:butt;stroke-linejoin:miter;stroke-opacity:1"
       d="m 173.30116,377.1128 0,4.76666"
       id="path4241-63-4"
       inkscape:connector-curvature="0" />
    <path
       sodipodi:type="arc"
       style="fill:none;stroke:#000000;stroke-width:0.31379321;stroke-miterlimit:4;stroke-opacity:1;stroke-dasharray:none"
       id="path4180-4-2-7-7"
       sodipodi:cx="150.19705"
       sodipodi:cy="302.76587"
       sodipodi:rx="2.588516"
       sodipodi:ry="2.588516"
       d="m 152.78557,302.76587 a 2.588516,2.588516 0 1 1 -5.17703,0 2.588516,2.588516 0 1 1 5.17703,0 z"
       transform="matrix(0,0.28681308,-0.28681308,0,234.8015,395.71227)" />
    <path
       sodipodi:type="arc"
       style="fill:none;stroke:#000000;stroke-width:0.31379321;stroke-miterlimit:4;stroke-opacity:1;stroke-dasharray:none"
       id="path4180-4-2-7-8"
       sodipodi:cx="150.19705"
       sodipodi:cy="302.76587"
       sodipodi:rx="2.588516"
       sodipodi:ry="2.588516"
       d="m 152.78557,302.76587 a 2.588516,2.588516 0 1 1 -5.17703,0 2.588516,2.588516 0 1 1 5.17703,0 z"
       transform="matrix(0,0.28681308,-0.28681308,0,278.90866,395.71227)" />
    <path
       sodipodi:type="arc"
       style="fill:none;stroke:#000000;stroke-width:0.31379321;stroke-miterlimit:4;stroke-opacity:1;stroke-dasharray:none"
       id="path4180-4-2-7-9"
       sodipodi:cx="150.19705"
       sodipodi:cy="302.76587"
       sodipodi:rx="2.588516"
       sodipodi:ry="2.588516"
       d="m 152.78557,302.76587 a 2.588516,2.588516 0 1 1 -5.17703,0 2.588516,2.588516 0 1 1 5.17703,0 z"
       transform="matrix(0,0.28681308,-0.28681308,0,323.01578,395.71227)" />
    <text
       xml:space="preserve"
       style="font-size:40px;font-style:normal;font-variant:normal;font-weight:normal;font-stretch:normal;line-height:125%;letter-spacing:0px;word-spacing:0px;fill:#000000;fill-opacity:1;stroke:none;font-family:Doctor Who;-inkscape-font-specification:Doctor Who"
       x="122.5"
       y="400.39789"
       id="text4520"
       sodipodi:linespacing="125%"><tspan
         sodipodi:role="line"
         id="tspan4522"
         x="122.5"
         y="400.39789" /></text>
    <g
       id="g4538"
       transform="translate(5.8083771,19.950513)">
      <text
         sodipodi:linespacing="125%"
         id="text4516"
         y="388.43341"
         x="118.17741"
         style="font-size:16.16461563px;font-style:normal;font-variant:normal;font-weight:normal;font-stretch:normal;line-height:125%;letter-spacing:0px;word-spacing:0px;fill:#000000;fill-opacity:1;stroke:none;font-family:Monospace;-inkscape-font-specification:Monospace"
         xml:space="preserve"><tspan
           y="388.43341"
           x="118.17741"
           id="tspan4518"
           sodipodi:role="line">Color-O-Tron</tspan></text>
      <text
         sodipodi:linespacing="125%"
         id="text4524"
         y="386.38086"
         x="176.16605"
         style="font-size:10.22774601px;font-style:normal;font-variant:normal;font-weight:normal;font-stretch:normal;text-align:center;line-height:125%;letter-spacing:0px;word-spacing:0px;writing-mode:lr-tb;text-anchor:middle;fill:#000000;fill-opacity:1;stroke:none;font-family:Liberation Sans;-inkscape-font-specification:Liberation Sans"
         xml:space="preserve"><tspan
           y="386.38086"
           x="176.16605"
           id="tspan4526"
           sodipodi:role="line" /><tspan
           id="tspan4530"
           y="399.16553"
           x="176.16605"
           sodipodi:role="line">Pattern Matching Game</tspan></text>
      <text
         sodipodi:linespacing="125%"
         id="text4534"
         y="414.25198"
         x="119.46452"
         style="font-size:13.82045937px;font-style:normal;font-variant:normal;font-weight:normal;font-stretch:normal;text-align:start;line-height:125%;letter-spacing:0px;word-spacing:0px;writing-mode:lr-tb;text-anchor:start;fill:#000000;fill-opacity:1;stroke:none;font-family:Liberation Sans;-inkscape-font-specification:Liberation Sans"
         xml:space="preserve"><tspan
           y="414.25198"
           x="119.46452"
           id="tspan4536"
           sodipodi:role="line">http://git.io/1DgfAg</tspan></text>
    </g>
    <g
       id="g4621"
       transform="matrix(0.70710678,0.70710678,-0.70710678,0.70710678,332.35339,-20.839173)">
      <path
         transform="matrix(0,-0.28681308,0.28681308,0,81.49459,382.98646)"
         d="m 152.78557,302.76587 c 0,1.4296 -1.15892,2.58852 -2.58852,2.58852 -1.4296,0 -2.58851,-1.15892 -2.58851,-2.58852 0,-1.4296 1.15891,-2.58852 2.58851,-2.58852 1.4296,0 2.58852,1.15892 2.58852,2.58852 z"
         sodipodi:ry="2.588516"
         sodipodi:rx="2.588516"
         sodipodi:cy="302.76587"
         sodipodi:cx="150.19705"
         id="path4180-9"
         style="fill:none;stroke:#000000;stroke-width:0.31379321;stroke-miterlimit:4;stroke-opacity:1;stroke-dasharray:none"
         sodipodi:type="arc" />
      <path
         transform="matrix(0,-0.28681308,0.28681308,0,81.49459,373.64956)"
         d="m 152.78557,302.76587 c 0,1.4296 -1.15892,2.58852 -2.58852,2.58852 -1.4296,0 -2.58851,-1.15892 -2.58851,-2.58852 0,-1.4296 1.15891,-2.58852 2.58851,-2.58852 1.4296,0 2.58852,1.15892 2.58852,2.58852 z"
         sodipodi:ry="2.588516"
         sodipodi:rx="2.588516"
         sodipodi:cy="302.76587"
         sodipodi:cx="150.19705"
         id="path4180-4-2"
         style="fill:none;stroke:#000000;stroke-width:0.31379321;stroke-miterlimit:4;stroke-opacity:1;stroke-dasharray:none"
         sodipodi:type="arc" />
    </g>
    <path
       sodipodi:type="arc"
       style="fill:none;stroke:#000000;stroke-width:0.13355159;stroke-miterlimit:4;stroke-opacity:1;stroke-dasharray:none"
       id="path4575"
       sodipodi:cx="150.40178"
       sodipodi:cy="335.53183"
       sodipodi:rx="1.8303572"
       sodipodi:ry="1.8303572"
       d="m 152.23214,335.53183 a 1.8303572,1.8303572 0 1 1 -3.66072,0 1.8303572,1.8303572 0 1 1 3.66072,0 z"
       transform="matrix(5.2414202,0,0,5.2414202,-573.98712,-1423.4238)" />
    <g
       id="g4617"
       transform="translate(31.969986,0)">
      <path
         transform="matrix(0,-0.28681308,0.28681308,0,72.52767,382.98646)"
         d="m 152.78557,302.76587 c 0,1.4296 -1.15892,2.58852 -2.58852,2.58852 -1.4296,0 -2.58851,-1.15892 -2.58851,-2.58852 0,-1.4296 1.15891,-2.58852 2.58851,-2.58852 1.4296,0 2.58852,1.15892 2.58852,2.58852 z"
         sodipodi:ry="2.588516"
         sodipodi:rx="2.588516"
         sodipodi:cy="302.76587"
         sodipodi:cx="150.19705"
         id="path4180-3"
         style="fill:none;stroke:#000000;stroke-width:0.31379321;stroke-miterlimit:4;stroke-opacity:1;stroke-dasharray:none"
         sodipodi:type="arc" />
      <path
         transform="matrix(0,-0.28681308,0.28681308,0,72.52767,373.64956)"
         d="m 152.78557,302.76587 c 0,1.4296 -1.15892,2.58852 -2.58852,2.58852 -1.4296,0 -2.58851,-1.15892 -2.58851,-2.58852 0,-1.4296 1.15891,-2.58852 2.58851,-2.58852 1.4296,0 2.58852,1.15892 2.58852,2.58852 z"
         sodipodi:ry="2.588516"
         sodipodi:rx="2.588516"
         sodipodi:cy="302.76587"
         sodipodi:cx="150.19705"
         id="path4180-4-3"
         style="fill:none;stroke:#000000;stroke-width:0.31379321;stroke-miterlimit:4;stroke-opacity:1;stroke-dasharray:none"
         sodipodi:type="arc" />
    </g>
    <path
       sodipodi:type="arc"
       style="fill:none;stroke:#000000;stroke-width:0.13355159;stroke-miterlimit:4;stroke-opacity:1;stroke-dasharray:none"
       id="path4575-2"
       sodipodi:cx="150.40178"
       sodipodi:cy="335.53183"
       sodipodi:rx="1.8303572"
       sodipodi:ry="1.8303572"
       d="m 152.23214,335.53183 a 1.8303572,1.8303572 0 1 1 -3.66072,0 1.8303572,1.8303572 0 1 1 3.66072,0 z"
       transform="matrix(5.2414202,0,0,5.2414202,-596.98405,-1423.4238)" />
    <g
       id="g4613"
       transform="matrix(0.70710678,-0.70710678,0.70710678,0.70710678,-175.01719,204.49435)">
      <path
         transform="matrix(0,-0.28681308,0.28681308,0,63.50071,382.98646)"
         d="m 152.78557,302.76587 c 0,1.4296 -1.15892,2.58852 -2.58852,2.58852 -1.4296,0 -2.58851,-1.15892 -2.58851,-2.58852 0,-1.4296 1.15891,-2.58852 2.58851,-2.58852 1.4296,0 2.58852,1.15892 2.58852,2.58852 z"
         sodipodi:ry="2.588516"
         sodipodi:rx="2.588516"
         sodipodi:cy="302.76587"
         sodipodi:cx="150.19705"
         id="path4180"
         style="fill:none;stroke:#000000;stroke-width:0.31379321;stroke-miterlimit:4;stroke-opacity:1;stroke-dasharray:none"
         sodipodi:type="arc" />
      <path
         transform="matrix(0,-0.28681308,0.28681308,0,63.50071,373.64956)"
         d="m 152.78557,302.76587 c 0,1.4296 -1.15892,2.58852 -2.58852,2.58852 -1.4296,0 -2.58851,-1.15892 -2.58851,-2.58852 0,-1.4296 1.15891,-2.58852 2.58851,-2.58852 1.4296,0 2.58852,1.15892 2.58852,2.58852 z"
         sodipodi:ry="2.588516"
         sodipodi:rx="2.588516"
         sodipodi:cy="302.76587"
         sodipodi:cx="150.19705"
         id="path4180-4"
         style="fill:none;stroke:#000000;stroke-width:0.31379321;stroke-miterlimit:4;stroke-opacity:1;stroke-dasharray:none"
         sodipodi:type="arc" />
    </g>
    <path
       sodipodi:type="arc"
       style="fill:none;stroke:#000000;stroke-width:0.13355159;stroke-miterlimit:4;stroke-opacity:1;stroke-dasharray:none"
       id="path4575-4"
       sodipodi:cx="150.40178"
       sodipodi:cy="335.53183"
       sodipodi:rx="1.8303572"
       sodipodi:ry="1.8303572"
       d="m 152.23214,335.53183 a 1.8303572,1.8303572 0 1 1 -3.66072,0 1.8303572,1.8303572 0 1 1 3.66072,0 z"
       transform="matrix(5.2414202,0,0,5.2414202,-619.981,-1423.4238)" />
    <path
       style="fill:none;stroke:#000000;stroke-width:1px;stroke-linecap:butt;stroke-linejoin:miter;stroke-opacity:1"
       d="m 182.33253,345.69734 -10.10152,-6.56599"
       id="path4668"
       inkscape:connector-curvature="0" />
    <path
       style="fill:none;stroke:#000000;stroke-width:1px;stroke-linecap:butt;stroke-linejoin:miter;stroke-opacity:1"
       d="m 200.57842,345.57107 9.84898,-6.56599"
       id="path4670"
       inkscape:connector-curvature="0" />
    <path
       style="fill:#000000;fill-opacity:1;stroke:none"
       id="path3"
       d="m 231.40267,313.08288 c -0.37384,-0.21577 -0.79772,-0.26145 -1.18568,-0.16634 l 10e-4,-0.003 c 0,0 -0.50742,0.19368 -0.59187,-0.6386 0.0261,-1.04504 -0.50591,-2.0749 -1.47733,-2.63476 -0.74196,-0.42869 -1.59122,-0.49841 -2.35032,-0.26551 0,0 -0.002,0.001 -0.007,0.003 -0.008,0.002 -0.0171,0.005 -0.0254,0.007 -0.15913,0.0436 -0.86579,0.16243 -0.99531,-1.11896 l -0.001,0.003 c 0,-0.004 0,-0.007 0,-0.01 0,-0.004 0,-0.008 0,-0.0114 l 7.2e-4,0.002 c 0.12787,-1.26232 0.81665,-1.1657 0.98855,-1.12138 0.76902,0.24823 1.63555,0.18286 2.38969,-0.25183 0.97488,-0.56227 1.50694,-1.59604 1.47734,-2.64694 0.073,-0.68699 0.43785,-0.66565 0.55491,-0.63949 0.008,0.002 0.0164,0.004 0.0246,0.007 0.007,0.003 0.0114,0.005 0.0114,0.005 l -7.3e-4,-0.001 c 0.38797,0.096 0.81169,0.05 1.18568,-0.16633 0.76572,-0.44101 1.02807,-1.42235 0.58601,-2.18716 -0.44281,-0.76571 -1.42249,-1.02881 -2.18805,-0.58705 -0.37384,0.21486 -0.62537,0.56001 -0.73597,0.94437 l -0.001,-0.003 c 0,0 -0.086,0.53522 -0.84836,0.19353 -0.89359,-0.54513 -2.05042,-0.59923 -3.02094,-0.0377 -0.74197,0.42703 -1.2273,1.12799 -1.40431,1.90196 0,0 -7.2e-4,0.003 -7.2e-4,0.005 -0.002,0.0107 -0.005,0.0188 -0.007,0.0287 -0.0426,0.16228 -0.29526,0.82883 -1.46667,0.30172 l 0.001,0.003 c -0.007,-0.004 -0.0123,-0.008 -0.0188,-0.01 h 0.002 c -1.03031,-0.74438 -0.59998,-1.29358 -0.47542,-1.41904 0.59924,-0.54108 0.97548,-1.32482 0.97548,-2.19452 0,-1.12482 -0.62792,-2.10285 -1.55186,-2.60126 -0.57279,-0.41637 -0.3492,-0.7262 -0.27287,-0.80673 0.002,-0.002 0.005,-0.005 0.007,-0.009 0.009,-0.007 0.0149,-0.0116 0.0149,-0.0116 h -0.001 c 0.27707,-0.28774 0.44927,-0.67796 0.44927,-1.11085 0,-0.88367 -0.71734,-1.601 -1.6019,-1.601 -0.88471,0 -1.6019,0.71733 -1.6019,1.601 0,0.43274 0.1722,0.82311 0.44927,1.11085 h -0.003 c 0,0 0.42133,0.34349 -0.25679,0.83122 -0.91972,0.50172 -1.54434,1.47644 -1.54434,2.59721 0,0.85587 0.36482,1.62639 0.94602,2.16747 0,0 0.002,0.001 0.006,0.006 0.007,0.004 0.0129,0.0114 0.0197,0.018 0.11616,0.11631 0.57279,0.66895 -0.47225,1.42234 h 0.003 c -0.007,0.001 -0.0122,0.006 -0.018,0.01 l 7.2e-4,-0.003 c -1.15744,0.52139 -1.41814,-0.12381 -1.46501,-0.296 -0.16874,-0.78946 -0.65903,-1.50589 -1.41317,-1.94299 -0.97383,-0.56317 -2.13471,-0.50576 -3.02905,0.0434 -0.63785,0.28369 -0.79847,-0.0508 -0.83378,-0.16227 -7.2e-4,-0.006 -0.003,-0.0114 -0.005,-0.0164 -0.002,-0.0116 -0.003,-0.0173 -0.003,-0.0173 l -7.2e-4,10e-4 c -0.10984,-0.38451 -0.36227,-0.7295 -0.73536,-0.94437 -0.76662,-0.44176 -1.74615,-0.17866 -2.18807,0.5854 -0.44265,0.76662 -0.17955,1.7478 0.58616,2.18881 0.37385,0.21637 0.79682,0.26234 1.18464,0.16633 l -7.3e-4,10e-4 c 0,0 0.50743,-0.19354 0.59112,0.63935 -0.0254,1.04609 0.50667,2.07565 1.47734,2.63552 0.74197,0.42808 1.59213,0.49765 2.35033,0.26505 0,0 0.003,-10e-4 0.008,-0.003 0.008,-0.002 0.0163,-0.006 0.0244,-0.007 0.15912,-0.0434 0.86668,-0.16393 0.99606,1.11897 l 7.2e-4,-0.003 c 0,0.003 0,0.007 0,0.0114 0,0.002 0,0.006 0,0.01 l -7.2e-4,-0.003 c -0.12713,1.26412 -0.81725,1.1666 -0.98855,1.12242 -0.76811,-0.24943 -1.6348,-0.18376 -2.3897,0.25078 -0.97382,0.56317 -1.50588,1.59679 -1.47643,2.64619 -0.0738,0.69434 -0.44446,0.66654 -0.55836,0.6395 -0.006,0 -0.0114,-0.001 -0.0172,-0.002 -0.01,-0.004 -0.0157,-0.006 -0.0157,-0.006 -0.12622,-0.0311 -0.25664,-0.0469 -0.38782,-0.0469 -0.27047,0 -0.54514,0.0681 -0.79682,0.21337 -0.76571,0.44116 -1.02882,1.42159 -0.58615,2.18865 0.4419,0.76571 1.42144,1.02656 2.18806,0.58541 0.37293,-0.21577 0.62552,-0.56001 0.73536,-0.94437 l 10e-4,0.002 c 0,0 0.0868,-0.53447 0.84926,-0.19339 0.89343,0.54769 2.05027,0.60163 3.02078,0.0403 0.74197,-0.42884 1.22716,-1.13039 1.40446,-1.90437 0,0 7.2e-4,-7.3e-4 0.001,-0.007 10e-4,-0.008 0.004,-0.017 0.006,-0.0252 0.0417,-0.15762 0.29255,-0.83138 1.46742,-0.30352 l -0.001,-0.002 c 0.006,0.005 0.0114,0.007 0.0172,0.0114 h -0.001 c 1.02971,0.74107 0.60178,1.29042 0.47706,1.41663 -0.59998,0.54168 -0.97712,1.32392 -0.97712,2.19451 0,1.12544 0.62883,2.10361 1.55261,2.60367 0.56166,0.40735 0.35672,0.71403 0.27647,0.80178 -0.005,0.005 -0.0108,0.0105 -0.0157,0.0164 -0.004,0.004 -0.007,0.007 -0.009,0.009 -0.27708,0.28788 -0.44838,0.67795 -0.44838,1.10934 0,0.88457 0.71643,1.60085 1.601,1.60085 0.88457,0 1.6019,-0.71643 1.6019,-1.60085 0,-0.43199 -0.17219,-0.82146 -0.44927,-1.10934 h 0.003 c 0,0 -0.42148,-0.34335 0.25664,-0.83288 0.91988,-0.50006 1.54434,-1.47644 1.54434,-2.59782 0,-0.85511 -0.36482,-1.62639 -0.94677,-2.16671 -7.2e-4,-7.2e-4 -0.002,-0.002 -0.005,-0.005 -0.007,-0.005 -0.0123,-0.0123 -0.0188,-0.0179 -0.1172,-0.11569 -0.57384,-0.66909 0.47136,-1.42158 h -0.002 c 0.005,-0.004 0.0114,-0.007 0.017,-0.0114 l -7.2e-4,0.002 c 1.15667,-0.52065 1.41812,0.12471 1.46575,0.29676 0.16904,0.78885 0.65828,1.50692 1.41243,1.94313 0.97397,0.56317 2.13471,0.50652 3.0301,-0.0434 0.63363,-0.28204 0.79681,0.0474 0.83197,0.16047 0.002,0.007 0.005,0.0157 0.007,0.0238 0.002,0.007 0.002,0.0114 0.002,0.0114 l 7.3e-4,-0.001 c 0.11059,0.38525 0.36212,0.72874 0.73596,0.94437 0.76571,0.44115 1.74524,0.18015 2.18805,-0.58541 0.44176,-0.76707 0.17941,-1.7475 -0.5863,-2.18866 z m -5.53219,-10.15472 c 0.76572,-0.44115 1.7454,-0.17866 2.18805,0.58691 0.44192,0.76661 0.17956,1.74614 -0.58601,2.1873 -0.7666,0.44356 -1.74538,0.17956 -2.18804,-0.5854 -0.44266,-0.76647 -0.17972,-1.74615 0.586,-2.18881 z m -11.46887,2.18881 c -0.44266,0.76481 -1.42234,1.02881 -2.18805,0.5854 -0.76662,-0.44116 -1.02896,-1.42069 -0.58616,-2.1873 0.44176,-0.76572 1.42144,-1.02806 2.18806,-0.58691 0.76571,0.44266 1.02806,1.42234 0.58615,2.18881 z m -0.58615,8.47153 c -0.76662,0.44115 -1.74615,0.17865 -2.18806,-0.58691 -0.44266,-0.76706 -0.18031,-1.74614 0.58616,-2.1879 0.76571,-0.44281 1.74524,-0.17956 2.18805,0.58525 0.44191,0.76752 0.17956,1.74615 -0.58615,2.18956 z m 6.02713,-14.81602 c 0.88457,0 1.6019,0.71658 1.6019,1.60116 0,0.88531 -0.71733,1.60189 -1.6019,1.60189 -0.88471,0 -1.6019,-0.71658 -1.6019,-1.60189 0,-0.88458 0.71734,-1.60116 1.6019,-1.60116 z m 0,18.97169 c -0.88471,0 -1.601,-0.71642 -1.601,-1.60174 0,-0.88306 0.71644,-1.60025 1.601,-1.60115 0.88457,0 1.6019,0.71809 1.6019,1.60115 0,0.88532 -0.71733,1.60174 -1.6019,1.60174 z m 0,-6.52809 c -1.63299,0 -2.95707,-1.32558 -2.95707,-2.95693 0,-1.633 1.32408,-2.95782 2.95707,-2.95782 1.633,0 2.95692,1.32468 2.95692,2.95782 0,1.63135 -1.32392,2.95693 -2.95692,2.95693 z m 8.21594,1.78551 c -0.4425,0.76572 -1.42159,1.02806 -2.18805,0.58691 -0.76586,-0.44341 -1.02881,-1.42219 -0.58615,-2.18956 0.4419,-0.76481 1.42159,-1.02806 2.18805,-0.58525 0.76571,0.44176 1.02807,1.42219 0.58615,2.1879 z"
       inkscape:connector-curvature="0" />
    <text
       xml:space="preserve"
       style="font-size:8.67468643px;font-style:normal;font-variant:normal;font-weight:normal;font-stretch:normal;text-align:start;line-height:125%;letter-spacing:0px;word-spacing:0px;writing-mode:lr-tb;text-anchor:start;fill:#000000;fill-opacity:1;stroke:none;font-family:Liberation Sans;-inkscape-font-specification:Liberation Sans"
       x="152.02666"
       y="291.99966"
       id="text4726"
       sodipodi:linespacing="125%"><tspan
         sodipodi:role="line"
         id="tspan4728"
         x="152.02666"
         y="291.99966">pumpingstationone.org</tspan></text>
  </g>
</svg>
